<svg version="1.1" xmlns="http://www.w3.org/2000/svg" xmlns:xlink="http://www.w3.org/1999/xlink" width="48" height="48"><defs><linearGradient x1="11.67151" y1="11.67185" x2="37.22075" y2="37.22039" gradientUnits="userSpaceOnUse" id="color-1"><stop offset="0" stop-color="#000000" stop-opacity="0.2"></stop><stop offset="1" stop-color="#000000" stop-opacity="0"></stop></linearGradient><filter id="dropshadow-base"><feColorMatrix type="matrix" values="0 0 0 0 0  0 0 0 0 0  0 0 0 0 0  0 0 0 .8 0"></feColorMatrix> <feOffset dx="0" dy="1"></feOffset> <feGaussianBlur stdDeviation="1"></feGaussianBlur> <feComposite in="SourceGraphic"></feComposite></filter><filter id="dropshadow-banner" x="-10%" y="-10%" width="120%" height="130%"><feColorMatrix type="matrix" values="0 0 0 0 0  0 0 0 0 0  0 0 0 0 0  0 0 0 .4 0"></feColorMatrix> <feOffset dx="0" dy="1"></feOffset> <feGaussianBlur stdDeviation="0.5"></feGaussianBlur> <feComposite in="SourceGraphic"></feComposite></filter></defs><g fill="none" fill-rule="nonzero" stroke="none" stroke-width="none" stroke-linecap="butt" stroke-linejoin="miter" stroke-miterlimit="10" stroke-dasharray="" stroke-dashoffset="0" font-family="none" font-weight="none" font-size="none" text-anchor="none" style="mix-blend-mode: normal"><path d="M7,43c-1.10457,0 -2,-0.89543 -2,-2v-34c0,-1.10457 0.89543,-2 2,-2h34c1.10457,0 2,0.89543 2,2v34c0,1.10457 -0.89543,2 -2,2z" id="base 1 5" fill="#fbc02d" stroke-width="1"></path><path d="M31.25235,20.24749h3.46805c0.88712,0 1.60807,-0.72094 1.60807,-1.60807c0,-0.21197 -0.04116,-0.41445 -0.11592,-0.59988c-0.18543,-0.07475 -0.38791,-0.11592 -0.59988,-0.11592h-3.22684l-0.89227,-0.89227l0.27337,-3.63154c0.01922,-0.25446 -0.02176,-0.49944 -0.11086,-0.72095c-0.14927,-0.05974 -0.31011,-0.09781 -0.47897,-0.11009c-0.88712,-0.06701 -1.65898,0.59766 -1.72331,1.48209l-0.28945,3.87275h-7.49893l-0.89227,-0.89227l0.27337,-3.63154c0.01922,-0.25446 -0.02176,-0.49944 -0.11086,-0.72095c-0.14927,-0.05974 -0.31011,-0.09781 -0.47897,-0.11009c-0.88443,-0.06701 -1.65898,0.59766 -1.72331,1.48209l-0.28945,3.87275h-4.27209c-0.88712,0 -1.60807,0.72094 -1.60807,1.60807c0,0.21197 0.04116,0.41445 0.11592,0.59988c0.18543,0.07475 0.38791,0.11592 0.59988,0.11592h4.03088l0.89227,0.89227l-0.56282,7.5043h-3.46805c-0.88712,0 -1.60807,0.72094 -1.60807,1.60807c0,0.21197 0.04116,0.41445 0.11592,0.59988c0.18543,0.07475 0.38791,0.11592 0.59988,0.11592h3.22684l0.89227,0.89227l-0.27337,3.63154c-0.01922,0.25446 0.02176,0.49944 0.11086,0.72095c0.14927,0.05974 0.31011,0.09781 0.47897,0.11009c0.0402,0.00268 0.08308,0.00536 0.12328,0.00536c0.83352,0 1.53838,-0.64323 1.60003,-1.48746l0.28945,-3.87275h7.49893l0.89227,0.89227l-0.27337,3.63154c-0.01922,0.25446 0.02176,0.49944 0.11086,0.72095c0.14927,0.05974 0.31011,0.09781 0.47897,0.11009c0.0402,0.00268 0.08308,0.00536 0.12328,0.00536c0.83352,0 1.53838,-0.64323 1.60003,-1.48746l0.28945,-3.87275h4.27209c0.88712,0 1.60807,-0.72094 1.60807,-1.60807c0,-0.21197 -0.04116,-0.41445 -0.11592,-0.59988c-0.18543,-0.07475 -0.38791,-0.11592 -0.59988,-0.11592h-4.03088l-0.89227,-0.89227zM35.85712,28.22315l0.89227,0.89227c0.29113,0.29113 0.47136,0.69314 0.47136,1.1367c0,0.88712 -0.72094,1.60807 -1.60807,1.60807h-4.27209l-0.28945,3.87275c-0.06164,0.84423 -0.76651,1.48746 -1.60003,1.48746c-0.0402,0 -0.08308,-0.00269 -0.12328,-0.00536c-0.39889,-0.02901 -0.75308,-0.20195 -1.0156,-0.46447l-0.89227,-0.89227c-0.31955,-0.31955 -0.50328,-0.77183 -0.46649,-1.25884l0.2062,-2.73927l-6.5395,0l-0.28945,3.87275c-0.06164,0.84423 -0.76651,1.48746 -1.60003,1.48746c-0.0402,0 -0.08308,-0.00269 -0.12328,-0.00536c-0.39889,-0.02901 -0.75308,-0.20195 -1.0156,-0.46447l-0.89227,-0.89227c-0.31955,-0.31955 -0.50328,-0.77183 -0.46649,-1.25884l0.2062,-2.73927h-2.26741c-0.44356,0 -0.84558,-0.18024 -1.1367,-0.47136l-0.89227,-0.89227c-0.29113,-0.29113 -0.47136,-0.69314 -0.47136,-1.1367c0,-0.88712 0.72094,-1.60807 1.60807,-1.60807h3.46805l0.4959,-6.61203h-3.0717c-0.44356,0 -0.84558,-0.18024 -1.1367,-0.47136l-0.89227,-0.89227c-0.29113,-0.29113 -0.47136,-0.69314 -0.47136,-1.1367c0,-0.88712 0.72094,-1.60807 1.60807,-1.60807h4.27209l0.28945,-3.87275c0.06433,-0.88443 0.83888,-1.5491 1.72331,-1.48209c0.39889,0.02901 0.75308,0.20195 1.0156,0.46447c0,0 0,0 0,0l0.89227,0.89227c0,0 0,0 0,0c0.31955,0.31955 0.50328,0.77183 0.46649,1.25884l-0.2062,2.73927h6.5395l0.28945,-3.87275c0.06433,-0.88443 0.83619,-1.5491 1.72331,-1.48209c0.39889,0.02901 0.75308,0.20195 1.0156,0.46447l0.89227,0.89227c0,0 0,0 0,0c0.31955,0.31955 0.50328,0.77183 0.46649,1.25884l-0.2062,2.73927h2.26741c0.44356,0 0.84558,0.18024 1.1367,0.47136l0.89227,0.89227c0.29113,0.29113 0.47136,0.69314 0.47136,1.1367c0,0.88712 -0.72094,1.60807 -1.60807,1.60807h-3.46805l-0.4959,6.61203l3.0717,0c0.44356,0 0.84558,0.18024 1.1367,0.47136zM28.03087,20.24749l0.89227,0.89227l-0.56282,7.5043h-7.49893l-0.89227,-0.89227l0.56282,-7.5043zM27.46805,27.75179l0.4959,-6.61203h-6.53975l-0.4959,6.61203z" fill="url(#color-1)" stroke-width="1"></path><path d="M34.72042,27.75179h-4.03088l0.56282,-7.50429h3.46806c0.88711,0 1.60806,-0.72095 1.60806,-1.60806c0,-0.88711 -0.72095,-1.60806 -1.60806,-1.60806h-3.22685l0.27337,-3.63154c0.067,-0.88711 -0.59766,-1.65898 -1.4821,-1.72331c-0.88711,-0.067 -1.65898,0.59766 -1.72331,1.4821l-0.28945,3.87275h-7.49893l0.27337,-3.63154c0.067,-0.88711 -0.59766,-1.65898 -1.4821,-1.72331c-0.88443,-0.067 -1.65898,0.59766 -1.72331,1.4821l-0.28945,3.87275h-4.27209c-0.88711,0 -1.60806,0.72095 -1.60806,1.60806c0,0.88711 0.72095,1.60806 1.60806,1.60806h4.03088l-0.56282,7.50429h-3.46806c-0.88711,0 -1.60806,0.72095 -1.60806,1.60806c0,0.88711 0.72095,1.60806 1.60806,1.60806h3.22685l-0.27337,3.63154c-0.067,0.88711 0.59766,1.65898 1.4821,1.72331c0.0402,0.00268 0.08308,0.00536 0.12328,0.00536c0.83351,0 1.53838,-0.64323 1.60002,-1.48746l0.28945,-3.87275h7.49893l-0.27337,3.63154c-0.067,0.88711 0.59766,1.65898 1.4821,1.72331c0.0402,0.00268 0.08308,0.00536 0.12328,0.00536c0.83351,0 1.53838,-0.64323 1.60002,-1.48746l0.28945,-3.87275h4.27209c0.88711,0 1.60806,-0.72095 1.60806,-1.60806c0,-0.88711 -0.72095,-1.60806 -1.60806,-1.60806zM19.96912,27.75179l0.56282,-7.50429h7.49893l-0.56282,7.50429z" fill="none" stroke-width="0"></path><path d="M36.32848,29.35986c0,0.88711 -0.72095,1.60806 -1.60806,1.60806h-4.27209l-0.28945,3.87275c-0.06164,0.84423 -0.76651,1.48746 -1.60002,1.48746c-0.0402,0 -0.08308,-0.00268 -0.12328,-0.00536c-0.88443,-0.06432 -1.5491,-0.83619 -1.4821,-1.72331l0.27337,-3.63154h-7.49893l-0.28945,3.87275c-0.06164,0.84423 -0.76651,1.48746 -1.60002,1.48746c-0.0402,0 -0.08308,-0.00268 -0.12328,-0.00536c-0.88443,-0.06432 -1.5491,-0.83619 -1.4821,-1.72331l0.27337,-3.63154h-3.22685c-0.88711,0 -1.60806,-0.72095 -1.60806,-1.60806c0,-0.88711 0.72095,-1.60806 1.60806,-1.60806h3.46806l0.56282,-7.50429h-4.03088c-0.88711,0 -1.60806,-0.72095 -1.60806,-1.60806c0,-0.88711 0.72095,-1.60806 1.60806,-1.60806h4.27209l0.28945,-3.87275c0.06432,-0.88443 0.83887,-1.5491 1.72331,-1.4821c0.88443,0.06432 1.5491,0.83619 1.4821,1.72331l-0.27337,3.63154h7.49893l0.28945,-3.87275c0.06432,-0.88443 0.83619,-1.5491 1.72331,-1.4821c0.88443,0.06432 1.5491,0.83619 1.4821,1.72331l-0.27337,3.63154h3.22685c0.88711,0 1.60806,0.72095 1.60806,1.60806c0,0.88711 -0.72095,1.60806 -1.60806,1.60806h-3.46806l-0.56282,7.50429h4.03088c0.88711,0 1.60806,0.72095 1.60806,1.60806zM27.46806,27.75179l0.56282,-7.50429h-7.49893l-0.56282,7.50429z" fill="#2d2d2d" stroke-width="0"></path><path d="M2,24c0,-12.15026 9.84974,-22 22,-22c12.15026,0 22,9.84974 22,22c0,12.15026 -9.84974,22 -22,22c-12.15026,0 -22,-9.84974 -22,-22z" id="base 1 1 1" fill="none" stroke-width="1"></path><g fill="#000000" stroke-width="1" font-family="Roboto, sans-serif" font-weight="normal" font-size="14" text-anchor="start"><g></g></g><rect x="2" y="2" width="44" height="22" fill="none" stroke-width="1"></rect><path d="M2,24v-22h44v22z" fill="none" stroke-width="1"></path><path d="M2,24v-22h44v22z" fill="none" stroke-width="1"></path><path d="M2,24v-22h44v22z" fill="none" stroke-width="1"></path><path d="M2,24v-22h44v22z" fill="none" stroke-width="1"></path></g></svg>